<?xml version="1.0" encoding="UTF-8"?>
<svg width="18px" height="22px" viewBox="0 0 18 22" version="1.1" xmlns="http://www.w3.org/2000/svg" xmlns:xlink="http://www.w3.org/1999/xlink">
    <title>dropper</title>
    <defs>
        <linearGradient x1="50%" y1="0%" x2="50%" y2="100%" id="linearGradient-1">
            <stop stop-color="#000000" stop-opacity="0" offset="0%"></stop>
            <stop stop-color="#000000" offset="50%"></stop>
            <stop stop-color="#000000" stop-opacity="0" offset="100%"></stop>
        </linearGradient>
        <radialGradient cx="0%" cy="50%" fx="0%" fy="50%" r="100%" gradientTransform="translate(0.000000,0.500000),scale(1.000000,0.500000),rotate(-90.000000),translate(-0.000000,-0.500000)" id="radialGradient-2">
            <stop stop-color="#000000" offset="0%"></stop>
            <stop stop-color="#000000" stop-opacity="0" offset="100%"></stop>
        </radialGradient>
        <linearGradient x1="0%" y1="-0.000403312811%" x2="100%" y2="100.000403%" id="linearGradient-3">
            <stop stop-color="#E8F0F9" offset="0%"></stop>
            <stop stop-color="#E1EBF9" offset="35.4662969%"></stop>
            <stop stop-color="#CDDCF0" offset="63.8013957%"></stop>
            <stop stop-color="#CDDCF0" offset="100%"></stop>
        </linearGradient>
        <linearGradient x1="0%" y1="0.01502655%" x2="100%" y2="99.9849734%" id="linearGradient-4">
            <stop stop-color="#D9E5F4" offset="0%"></stop>
            <stop stop-color="#D9E6FB" offset="39.4402233%"></stop>
            <stop stop-color="#B2C6E5" offset="60.3970841%"></stop>
            <stop stop-color="#B2C6E5" offset="100%"></stop>
        </linearGradient>
        <linearGradient x1="0%" y1="14.5515144%" x2="100%" y2="85.4484856%" id="linearGradient-5">
            <stop stop-color="#000000" offset="0%"></stop>
            <stop stop-color="#AEC1DF" stop-opacity="0.65780704" offset="41.3533075%"></stop>
            <stop stop-color="#000000" stop-opacity="0.02537697" offset="67.14895%"></stop>
            <stop stop-color="#000000" offset="100%"></stop>
        </linearGradient>
        <linearGradient x1="0%" y1="0.00147459%" x2="100%" y2="99.9985254%" id="linearGradient-6">
            <stop stop-color="#C9DAF0" offset="0%"></stop>
            <stop stop-color="#AFC6E9" offset="14.8341552%"></stop>
            <stop stop-color="#99B3DC" offset="84.8508728%"></stop>
            <stop stop-color="#99B3DC" offset="100%"></stop>
        </linearGradient>
        <linearGradient x1="0.00900854%" y1="0%" x2="99.9909915%" y2="100%" id="linearGradient-7">
            <stop stop-color="#FFE16B" offset="0%"></stop>
            <stop stop-color="#FFE16B" offset="22.3188771%"></stop>
            <stop stop-color="#F9C440" offset="79.2516751%"></stop>
            <stop stop-color="#F9C440" offset="100%"></stop>
        </linearGradient>
        <linearGradient x1="37.5614266%" y1="38.9788247%" x2="55.006298%" y2="54.3075075%" id="linearGradient-8">
            <stop stop-color="#FFF394" offset="0%"></stop>
            <stop stop-color="#FFE16B" offset="50%"></stop>
            <stop stop-color="#FDD65A" offset="100%"></stop>
        </linearGradient>
    </defs>
    <g id="Page-1" stroke="none" stroke-width="1" fill="none" fill-rule="evenodd">
        <g id="Main" transform="translate(-665.000000, -146.000000)">
            <g id="dropper-mod-simplified" transform="translate(665.000000, 146.000000)">
                <rect id="Rectangle" fill="url(#linearGradient-1)" opacity="0.154622396" x="0.787472036" y="16.2662192" width="6.5458613" height="1.52572707"></rect>
                <path d="M7.33333333,17.7919463 C7.75465123,17.7919463 8.09619687,17.4504007 8.09619687,17.0290828 C8.09619687,16.7803059 7.97711405,16.5593422 7.79284064,16.4200841 C7.66503651,16.3235006 7.50587431,16.2662192 7.33333333,16.2662192 C7.33333333,16.4200841 7.33333333,17.6291981 7.33333333,17.7919463 Z" id="Oval" fill="url(#radialGradient-2)" opacity="0.154622396"></path>
                <path d="M0.0246085011,17.7919463 C0.445926397,17.7919463 0.787472036,17.4504007 0.787472036,17.0290828 C0.787472036,16.7803059 0.668389222,16.5593422 0.484115804,16.4200841 C0.356311679,16.3235006 0.197149482,16.2662192 0.0246085011,16.2662192 C0.0246085011,16.4200841 0.0246085011,17.6291981 0.0246085011,17.7919463 Z" id="Oval-Copy" fill="url(#radialGradient-2)" opacity="0.154622396" transform="translate(0.406040, 17.029083) scale(-1, 1) translate(-0.406040, -17.029083) "></path>
                <path d="M9.34325727,5.19357494 L2.70821477,11.8285682 L0.481243848,16.2832975 L1.59472931,17.396783 L6.04945861,15.1698121 L12.6845011,8.5339821 C10.0931767,5.94275615 11.8887114,7.73902908 9.34325727,5.19357494 Z" id="Path" fill="url(#linearGradient-3)" fill-rule="nonzero"></path>
                <path d="M9.34325727,5.19357494 C9.36871181,5.21902949 9.39373226,5.24404983 9.41832732,5.2686448 L9.51997584,5.37029223 L2.90508277,11.9762192 L0.678111857,16.4309485 L1.62750783,17.3803937 L1.59472931,17.396783 L0.481243848,16.2832975 L2.70821477,11.8285682 L9.34325727,5.19357494 Z" id="Path" fill="#FFFFFF" fill-rule="nonzero" opacity="0.39776321"></path>
                <path d="M2.70821477,11.8285682 L9.34325727,5.19357494 L12.6845011,8.5339821 L6.04945861,15.1698121 L1.59472931,17.396783 L0.481243848,16.2832975 L2.70821477,11.8285682 L2.70821477,11.8285682 Z M9.34325727,5.40235347 L2.82953468,11.9160268 L0.660885906,16.2541119 L1.62386577,17.2170917 L5.96195078,15.048443 L12.4756734,8.5339821 L9.34325727,5.40235347 Z" id="Shape" fill="#ABBFDC" fill-rule="nonzero"></path>
                <path d="M1.59758389,18.1610738 L0.484098434,19.2745593 C-0.12855481,19.8872125 -0.12855481,20.8896644 0.484098434,21.5015302 C1.09675168,22.1141834 2.09920358,22.1141834 2.71106935,21.5015302 C3.3237226,20.888877 3.3237226,19.8864251 2.71106935,19.2745593 L1.59758389,18.1610738 Z" id="Path" fill="#7BC24D" fill-rule="nonzero"></path>
                <path d="M1.59758389,18.1610738 L1.59758389,20.4991693 C1.5976945,21.1022805 1.59774981,21.5895641 1.59774981,21.9610201 C2.00054409,21.9603518 2.40580541,21.807187 2.71106935,21.5015302 C3.3237226,20.888877 3.3237226,19.8864251 2.71106935,19.2745593 L1.59758389,18.1610738 Z" id="Path" fill="#000000" fill-rule="nonzero" opacity="0.04789807"></path>
                <path d="M1.59758389,18.3699016 L2.60666433,19.3789643 L2.62314725,19.395698 C2.77038117,19.5476445 2.87694401,19.7250616 2.94283578,19.9138918 C2.87899826,19.8087499 2.80174385,19.7096363 2.71106935,19.6190783 L1.59758389,18.5055928 L0.484098434,19.6190783 C0.393419607,19.7097571 0.316162156,19.8089753 0.252326081,19.9142023 C0.320699699,19.7183617 0.432744075,19.5347237 0.58850346,19.3789643 L1.59758389,18.3699016 Z" id="Path" fill-opacity="0.39556927" fill="#FFFFFF" fill-rule="nonzero"></path>
                <path d="M1.59758389,18.1610738 L2.71106935,19.2745593 C3.3237226,19.8864251 3.3237226,20.888877 2.71106935,21.5015302 C2.09920358,22.1141834 1.09675168,22.1141834 0.484098434,21.5015302 C-0.122428277,20.8957831 -0.128493545,19.9072225 0.465902633,19.293055 L0.484098434,19.2745593 L1.59758389,18.1610738 Z M1.59758389,18.3699016 L0.58850346,19.3789643 C0.033522717,19.9339451 0.033522717,20.8428577 0.58850346,21.3971252 C1.14348421,21.9521059 2.05239688,21.9521059 2.60666433,21.3971252 C3.15609526,20.8476942 3.16158957,19.9513746 2.62314725,19.395698 L2.60666433,19.3789643 L1.59758389,18.3699016 Z" id="Shape" fill="#000000" fill-rule="nonzero" opacity="0.07828776"></path>
                <polygon id="Path" fill="url(#linearGradient-4)" fill-rule="nonzero" points="12.5468991 8.67359779 11.9901072 8.11680585 10.8764741 7.00317274 9.20599981 5.33274768 7.72303356 6.81379866 8.2798255 7.37063982 3.35541834 12.2949978 1.43940045 16.1277718 1.75020582 16.4385772 5.58297987 14.5218702 10.5070425 9.59780761 11.0638345 10.1546488"></polygon>
                <path d="M7.72303356,6.81379866 L9.20599981,5.33274768 L12.5468991,8.67359779 L11.0638345,10.1546488 L10.5070425,9.59780761 L6.46790157,13.6368864 L2.68454139,13.6368864 L3.35541834,12.2949978 L8.2798255,7.37063982 L7.72303356,6.81379866 Z M9.20589262,5.54148993 L7.9318613,6.81384787 L8.48863149,7.37064494 L3.47673826,12.3824564 L2.92344072,13.4891991 L6.40672483,13.4891991 L10.5070479,9.38899374 L11.0639329,9.94587025 L12.3379642,8.6735123 L9.20589262,5.54148993 Z" id="Shape" fill="url(#linearGradient-5)" fill-rule="nonzero"></path>
                <polygon id="Path" fill="url(#linearGradient-6)" fill-rule="nonzero" points="10.5070425 9.59780761 11.6174765 8.48742282 10.5038434 7.37378971 9.39021029 6.26020582 8.2798255 7.37063982"></polygon>
                <polygon id="Path" fill="#7BC24D" fill-rule="nonzero" points="2.75841611 13.4892975 1.43940045 16.1277718 1.75020582 16.4385772 5.58297987 14.5218702 6.61550336 13.4892975"></polygon>
                <polygon id="Path" fill="#FFFFFF" fill-rule="nonzero" opacity="0.39978609" points="6.25902461 13.6368993 6.16054139 13.7368993 2.80039821 13.7368993 2.84966443 13.6368993"></polygon>
                <path d="M6.61550336,13.4892975 L5.58297987,14.5218702 L1.75020582,16.4385772 L1.43940045,16.1277718 L2.75841611,13.4892975 L6.61550336,13.4892975 L6.61550336,13.4892975 Z M6.25902461,13.6368993 L2.84966443,13.6368993 L1.61904251,16.0985861 L1.77934228,16.2588859 L5.49547204,14.4005011 L6.25902461,13.6368993 Z" id="Shape" fill="#000000" fill-rule="nonzero" opacity="0.04094587"></path>
                <path d="M17.1858881,0.692187919 C16.2629709,-0.230729306 14.7675615,-0.230729306 13.8446443,0.692187919 L9.94665772,4.5901745 L9.38991499,4.03343177 C9.08201342,3.7255302 8.58354362,3.7255302 8.27642953,4.03343177 C7.96931544,4.34133333 7.96852796,4.83980313 8.27642953,5.14691723 L12.7311588,9.60164653 C13.0390604,9.9095481 13.5375302,9.9095481 13.8446443,9.60164653 C14.1517584,9.29374497 14.1525459,8.79527517 13.8446443,8.48816107 L13.2879016,7.93141834 L17.1858881,4.03343177 C18.1080179,3.11051454 18.1080179,1.61431767 17.1858881,0.692187919 Z" id="Path" fill="url(#linearGradient-7)" fill-rule="nonzero"></path>
                <path d="M8.27642953,4.03343177 C8.58354362,3.7255302 9.08201342,3.7255302 9.38991499,4.03343177 L9.43445844,4.07791711 C9.12651396,3.85660229 8.69541786,3.88442858 8.41915884,4.16139597 C8.11204474,4.46929754 8.11125727,4.96776734 8.41915884,5.27488143 L12.8293937,9.6851606 C12.794982,9.66043344 12.7621077,9.63259541 12.7311588,9.60164653 L8.27642953,5.14691723 C7.96852796,4.83980313 7.96931544,4.34133333 8.27642953,4.03343177 L8.27642953,4.03343177 Z M13.8446443,0.692187919 C14.7675615,-0.230729306 16.2629709,-0.230729306 17.1858881,0.692187919 L17.160814,0.667504254 C16.2325156,-0.0995999626 14.8562431,-0.0487173394 13.9873736,0.820152125 L10.089387,4.7181387 L9.95404017,4.58279195 L13.8446443,0.692187919 Z" id="Shape" fill="#FFFFFF" fill-rule="nonzero" opacity="0.402994789"></path>
                <path d="M13.8446935,0.692138702 L9.94670694,4.59012528 L11.0613244,5.70484116 L16.5280045,0.238111857 C15.6502685,-0.180035794 14.5715794,-0.0347472036 13.8446935,0.692138702 L13.8446935,0.692138702 Z" id="Path" fill="url(#linearGradient-8)" fill-rule="nonzero"></path>
                <path d="M13.8446935,0.692138702 C14.5715794,-0.0347472036 15.6502685,-0.180035794 16.5280045,0.238111857 L16.4896025,0.276547145 C15.6387652,-0.0651332807 14.6326592,0.101041029 13.9431275,0.790572707 L10.0451409,4.68855928 L9.94670694,4.59012528 L13.8446935,0.692138702 Z" id="Path" fill="#FFFFFF" fill-rule="nonzero" opacity="0.397042406"></path>
            </g>
        </g>
    </g>
</svg>
